<?xml version="1.0" encoding="UTF-8" standalone="no"?>
<!-- Created with Inkscape (http://www.inkscape.org/) -->

<svg
   xmlns:dc="http://purl.org/dc/elements/1.1/"
   xmlns:cc="http://creativecommons.org/ns#"
   xmlns:rdf="http://www.w3.org/1999/02/22-rdf-syntax-ns#"
   xmlns:svg="http://www.w3.org/2000/svg"
   xmlns="http://www.w3.org/2000/svg"
   xmlns:sodipodi="http://sodipodi.sourceforge.net/DTD/sodipodi-0.dtd"
   xmlns:inkscape="http://www.inkscape.org/namespaces/inkscape"
   id="svg2"
   version="1.1"
   inkscape:version="0.48.4 r9939"
   width="1616.5585"
   height="800"
   xml:space="preserve"
   sodipodi:docname="fluidik_invertiert.svg"
   inkscape:export-filename="/home/christian/Dropbox/Public/presentations-and-posters/images/fluidik_invertiert.png"
   inkscape:export-xdpi="90"
   inkscape:export-ydpi="90"><metadata
     id="metadata8"><rdf:RDF><cc:Work
         rdf:about=""><dc:format>image/svg+xml</dc:format><dc:type
           rdf:resource="http://purl.org/dc/dcmitype/StillImage" /><dc:title /></cc:Work></rdf:RDF></metadata><defs
     id="defs6"><clipPath
       clipPathUnits="userSpaceOnUse"
       id="clipPath16"><path
         d="m 0,850.394 623.622,0 L 623.622,0 0,0 0,850.394 z"
         id="path18"
         inkscape:connector-curvature="0" /></clipPath><clipPath
       clipPathUnits="userSpaceOnUse"
       id="clipPath17472"><path
         d="m 6,839.504 609.449,0 0,-829.44 -609.449,0 0,829.44 z"
         id="path17474"
         inkscape:connector-curvature="0" /></clipPath><filter
       id="filter2987"
       style="color-interpolation-filters:sRGB;"
       inkscape:label="Drop Shadow"><feFlood
         id="feFlood2989"
         flood-opacity="1"
         flood-color="rgb(0,0,0)"
         result="flood" /><feComposite
         id="feComposite2991"
         in2="SourceGraphic"
         in="flood"
         operator="in"
         result="composite1" /><feGaussianBlur
         id="feGaussianBlur2993"
         in="composite"
         stdDeviation="4"
         result="blur" /><feOffset
         id="feOffset2995"
         dx="0"
         dy="0"
         result="offset" /><feComposite
         id="feComposite2997"
         in2="offset"
         in="SourceGraphic"
         operator="over"
         result="fbSourceGraphic" /><feColorMatrix
         result="fbSourceGraphicAlpha"
         in="fbSourceGraphic"
         values="0 0 0 -1 0 0 0 0 -1 0 0 0 0 -1 0 0 0 0 1 0"
         id="feColorMatrix3528" /><feFlood
         id="feFlood3530"
         flood-opacity="1"
         flood-color="rgb(0,0,0)"
         result="flood"
         in="fbSourceGraphic" /><feComposite
         id="feComposite3532"
         in2="fbSourceGraphic"
         in="flood"
         operator="in"
         result="composite1" /><feGaussianBlur
         id="feGaussianBlur3534"
         in="composite"
         stdDeviation="4"
         result="blur" /><feOffset
         id="feOffset3536"
         dx="0"
         dy="0"
         result="offset" /><feComposite
         id="feComposite3538"
         in2="offset"
         in="fbSourceGraphic"
         operator="over"
         result="composite2" /></filter><filter
       color-interpolation-filters="sRGB"
       id="filter2987-4"
       inkscape:label="Drop Shadow"><feFlood
         id="feFlood2989-7"
         flood-opacity="1"
         flood-color="rgb(0,0,0)"
         result="flood" /><feComposite
         id="feComposite2991-9"
         in2="SourceGraphic"
         in="flood"
         operator="in"
         result="composite1" /><feGaussianBlur
         id="feGaussianBlur2993-7"
         stdDeviation="4"
         result="blur" /><feOffset
         id="feOffset2995-8"
         dx="0"
         dy="0"
         result="offset" /><feComposite
         id="feComposite2997-1"
         in2="offset"
         in="SourceGraphic"
         operator="over"
         result="fbSourceGraphic" /><feColorMatrix
         result="fbSourceGraphicAlpha"
         in="fbSourceGraphic"
         values="0 0 0 -1 0 0 0 0 -1 0 0 0 0 -1 0 0 0 0 1 0"
         id="feColorMatrix3528-0" /><feFlood
         id="feFlood3530-2"
         flood-opacity="1"
         flood-color="rgb(0,0,0)"
         result="flood"
         in="fbSourceGraphic" /><feComposite
         id="feComposite3532-6"
         in2="fbSourceGraphic"
         in="flood"
         operator="in"
         result="composite1" /><feGaussianBlur
         id="feGaussianBlur3534-4"
         stdDeviation="4"
         result="blur" /><feOffset
         id="feOffset3536-5"
         dx="0"
         dy="0"
         result="offset" /><feComposite
         id="feComposite3538-7"
         in2="offset"
         in="fbSourceGraphic"
         operator="over"
         result="composite2" /></filter></defs><sodipodi:namedview
     pagecolor="#ffffff"
     bordercolor="#666666"
     borderopacity="1"
     objecttolerance="10"
     gridtolerance="10"
     guidetolerance="10"
     inkscape:pageopacity="0"
     inkscape:pageshadow="2"
     inkscape:window-width="1920"
     inkscape:window-height="1056"
     id="namedview4"
     showgrid="false"
     inkscape:zoom="0.5"
     inkscape:cx="1284.922"
     inkscape:cy="96.96801"
     inkscape:window-x="0"
     inkscape:window-y="24"
     inkscape:window-maximized="1"
     inkscape:current-layer="g10"
     fit-margin-top="0"
     fit-margin-left="0"
     fit-margin-right="0"
     fit-margin-bottom="0" /><g
     id="g10"
     inkscape:groupmode="layer"
     inkscape:label="CHRISTIANBIS"
     transform="matrix(1.25,0,0,-1.25,-576.3846,1066.7699)"><path
       style="fill:#ffffff;fill-opacity:1;stroke:none;filter:url(#filter2987)"
       d="m 1447.5778,712.19907 0,-194.6515 0,-162.91485 5.8184,0 0,162.91485 0,16.92621 28.0341,0 16.3972,4.7605 239.6117,0 0,-11.63677 -239.6117,0 -16.3972,4.76049 -25.3894,0 0,-14.81043 0,-165.03063 -11.1078,0 0,165.03063 0,192.00678 -5.8184,0 0,-192.00678 0,-165.03063 -11.1078,0 0,165.03063 0,192.00678 -5.8184,0 0,-192.00678 0,-165.03063 -10.5789,0 0,165.03063 0,192.00678 -6.3474,0 0,-192.00678 0,-165.03063 -10.5788,0 0,165.03063 0,192.00678 -5.8184,0 0,-192.00678 0,-165.03063 -11.1079,0 0,165.03063 0,192.00678 -5.8183,0 0,-192.00678 0,-165.03063 -11.1079,0 0,165.03063 0,192.00678 -5.8183,0 0,-192.00678 0,-165.03063 -10.5789,0 0,165.03063 0,192.00678 -6.3473,0 0,-192.00678 0,-165.03063 -10.5789,0 0,165.03063 0,192.00678 -6.3474,0 0,-192.00678 0,-165.03063 -10.5788,0 0,165.03063 0,192.00678 -5.8185,0 0,-192.00678 0,-165.03063 -11.1078,0 0,165.03063 0,192.00678 -5.8184,0 0,-192.00678 0,-165.03063 -10.5789,0 0,165.03063 0,192.00678 -6.3473,0 0,-192.00678 0,-165.03063 -10.5789,0 0,165.03063 0,192.00678 -5.8184,0 0,-192.00678 0,-165.03063 -11.1078,0 0,165.03063 0,192.00678 -5.8184,0 0,-192.00678 0,-165.03063 -11.1079,0 0,165.03063 0,192.00678 -5.8183,0 0,-192.00678 0,-165.03063 -10.5789,0 0,165.03063 0,192.00678 -6.3473,0 0,-192.00678 0,-165.03063 -10.5789,0 0,165.03063 0,192.00678 -5.8184,0 0,-192.00678 0,-165.03063 -11.1078,0 0,165.03063 0,192.00678 -5.8185,0 0,-192.00678 0,-165.03063 -11.1077,0 0,165.03063 0,192.00678 -5.8185,0 0,-192.00678 0,-165.03063 -10.5789,0 0,165.03063 0,192.00678 -6.3473,0 0,-192.00678 0,-165.03063 -9.521,0 -1.0579,0 0,357.03741 -6.3472,0 0,-357.03741 -10.579,0 0,357.03741 -5.8183,0 0,-357.03741 -11.1079,0 0,357.03741 -5.8184,0 0,-357.03741 -10.5788,0 0,357.03741 -6.3474,0 0,-357.03741 -10.5789,0 0,357.03741 -5.8183,0 0,-357.03741 -11.1079,0 0,357.03741 -5.8184,0 0,-357.03741 -11.1078,0 0,357.03741 -5.8184,0 0,-357.03741 -10.5789,0 0,357.03741 -6.3473,0 0,-357.03741 -10.57889,0 0,357.03741 -5.81838,0 0,-357.03741 -11.10783,0 0,357.03741 -5.81839,0 0,-357.03741 -11.10783,0 0,357.03741 -5.81838,0 0,-357.03741 -10.57889,0 0,357.03741 -6.34734,0 0,-357.03741 -10.57888,0 0,357.03741 -5.81838,0 0,-357.03741 -11.10784,0 0,357.03741 -5.81838,0 0,-357.03741 -11.10783,0 0,357.03741 -5.8184,0 0,-357.03741 -10.57888,0 0,357.03741 -6.34733,0 0,-357.03741 -10.57888,0 0,357.03741 -5.8184,0 0,-357.03741 -11.10783,0 0,357.03741 -5.81838,0 0,-357.03741 -11.10783,0 0,357.03741 -5.81839,0 0,-357.03741 -10.57888,0 0,357.03741 -1.58684,0 -4.7605,0 0,-357.03741 -10.57889,0 0,357.03741 -5.81838,0 0,-357.03741 -11.10783,0 0,357.03741 -5.81839,0 0,-357.03741 -11.10783,0 0,357.03741 -5.81838,0 0,-357.03741 -10.57889,0 0,357.03741 -6.34733,0 0,-357.03741 -10.57889,0 0,357.03741 -5.81838,0 0,-357.03741 -11.10783,0 0,357.03741 -5.81839,0 0,-357.03741 -11.10783,0 0,357.03741 -5.81838,0 0,-357.03741 -10.5789,0 0,357.03741 -6.34733,0 0,-357.03741 -10.57888,0 0,357.03741 -5.81839,0 0,-357.03741 -11.10783,0 0,357.03741 -5.81839,0 0,-357.03741 -10.57888,0 0,357.03741 -6.34734,0 0,-177.46079 -138.05448,0 0,2.64472 135.93871,0 0,177.46079 10.57888,0 0,-357.56635 5.8184,0 0,357.56635 11.10783,0 0,-357.56635 5.81838,0 0,357.56635 10.57888,0 0,-357.56635 6.34734,0 0,357.56635 10.57889,0 0,-357.56635 6.34732,0 0,357.56635 10.57889,0 0,-357.56635 5.81839,0 0,357.56635 11.10783,0 0,-357.56635 5.81838,0 0,357.56635 11.10783,0 0,-357.56635 5.81839,0 0,357.56635 10.57889,0 0,-357.56635 6.34733,0 0,357.56635 10.57889,0 0,-357.56635 5.81838,0 0,357.56635 11.10783,0 0,-357.56635 5.81839,0 0,357.56635 10.57889,0 0,-357.56635 6.34732,0 0,357.56635 6.87628,0 3.70261,0 0,-357.56635 6.34734,0 0,357.56635 10.57888,0 0,-357.56635 5.81838,0 0,357.56635 11.10783,0 0,-357.56635 5.8184,0 0,357.56635 10.57888,0 0,-357.56635 6.34734,0 0,357.56635 10.57887,0 0,-357.56635 6.34734,0 0,357.56635 10.57888,0 0,-357.56635 5.8184,0 0,357.56635 11.10783,0 0,-357.56635 5.81838,0 0,357.56635 10.57888,0 0,-357.56635 6.34734,0 0,357.56635 10.57889,0 0,-357.56635 6.34732,0 0,357.56635 10.57889,0 0,-357.56635 5.81839,0 0,357.56635 11.10783,0 0,-357.56635 5.81839,0 0,357.56635 10.57889,0 0,-357.56635 6.3473,0 0,357.56635 10.5789,0 0,-357.56635 5.8184,0 0,357.56635 11.1078,0 0,-357.56635 5.8184,0 0,357.56635 11.1078,0 0,-357.56635 5.8184,0 0,357.56635 10.5789,0 0,-357.56635 6.3473,0 0,357.56635 10.579,0 0,-357.56635 6.3472,0 0,357.56635 10.5789,0 0,-357.56635 5.8184,0 0,357.56635 11.1078,0 0,-357.56635 5.8185,0 0,357.56635 9.5209,0 1.0579,0 0,-194.6515 0,-162.91485 6.3474,0 0,162.91485 0,194.6515 10.5789,0 0,-194.6515 0,-162.91485 6.3473,0 0,162.91485 0,194.6515 10.5789,0 0,-194.6515 0,-162.91485 5.8183,0 0,162.91485 0,194.6515 11.1079,0 0,-194.6515 0,-162.91485 5.8183,0 0,162.91485 0,194.6515 10.5789,0 0,-194.6515 0,-162.91485 6.3474,0 0,162.91485 0,194.6515 10.5788,0 0,-194.6515 0,-162.91485 5.8185,0 0,162.91485 0,194.6515 11.1078,0 0,-194.6515 0,-162.91485 5.8184,0 0,162.91485 0,194.6515 11.1078,0 0,-194.6515 0,-162.91485 5.8184,0 0,162.91485 0,194.6515 10.5789,0 0,-194.6515 0,-162.91485 6.3474,0 0,162.91485 0,194.6515 10.5788,0 0,-194.6515 0,-162.91485 6.3474,0 0,162.91485 0,194.6515 10.5789,0 0,-194.6515 0,-162.91485 5.8183,0 0,162.91485 0,194.6515 11.1079,0 0,-194.6515 0,-162.91485 5.8183,0 0,162.91485 0,194.6515 10.5789,0 0,-194.6515 0,-162.91485 6.3473,0 0,162.91485 0,194.6515 10.5789,0 0,-194.6515 0,-162.91485 6.3474,0 0,162.91485 0,194.6515 10.5788,0 0,-194.6515 0,-162.91485 5.8185,0 0,162.91485 0,194.6515 11.1078,0 0,-194.6515 0,-162.91485 5.8184,0 0,162.91485 0,194.6515 10.5789,0 0,-194.6515 0,-162.91485 6.3473,0 0,162.91485 0,194.6515 10.5789,0 0,-194.6515 0,-162.91485 5.8183,0 0,162.91485 0,194.6515 11.1079,0 0,-194.6515 0,-162.91485 5.8184,0 0,162.91485 0,194.6515 z"
       id="rect3032"
       inkscape:connector-curvature="0"
       inkscape:export-xdpi="90"
       inkscape:export-ydpi="90"
       sodipodi:nodetypes="cccccccccccccccccccccccccccccccccccccccccccccccccccccccccccccccccccccccccccccccccccccccccccccccccccccccccccccccccccccccccccccccccccccccccccccccccccccccccccccccccccccccccccccccccccccccccccccccccccccccccccccccccccccccccccccccccccccccccccccccccccccccccccccccccccccccccccccccccccccccccccccccccccccccccccccccccccccccccccccccccccccccccccccccccccccccccccccccccccccccccccccccccccccccccccccccccccccccccccccccccccccccccccccccccccccccccccccccccccccccccccccccccccccccccccccccccccccccccccccccccccccccccccccccc" /></g></svg>